<svg xmlns="http://www.w3.org/2000/svg" xmlns:xlink="http://www.w3.org/1999/xlink" version="1.1" width="256" height="256" viewBox="0 0 256 256" xml:space="preserve">

<defs>
</defs>
<g style="stroke: none; stroke-width: 0; stroke-dasharray: none; stroke-linecap: butt; stroke-linejoin: miter; stroke-miterlimit: 10; fill: none; fill-rule: nonzero; opacity: 1;" transform="translate(1.4065934065934016 1.4065934065934016) scale(2.81 2.81)" >
	<rect x="0" y="0" rx="0" ry="0" width="45" height="45" style="stroke: none; stroke-width: 1; stroke-dasharray: none; stroke-linecap: butt; stroke-linejoin: miter; stroke-miterlimit: 10; fill: rgb(255,190,0); fill-rule: nonzero; opacity: 1;" transform=" matrix(1 0 0 1 0 0) "/>
	<rect x="45" y="0" rx="0" ry="0" width="45" height="45" style="stroke: none; stroke-width: 1; stroke-dasharray: none; stroke-linecap: butt; stroke-linejoin: miter; stroke-miterlimit: 10; fill: rgb(123,216,247); fill-rule: nonzero; opacity: 1;" transform=" matrix(1 0 0 1 0 0) "/>
	<rect x="0" y="45" rx="0" ry="0" width="45" height="45" style="stroke: none; stroke-width: 1; stroke-dasharray: none; stroke-linecap: butt; stroke-linejoin: miter; stroke-miterlimit: 10; fill: rgb(129,188,218); fill-rule: nonzero; opacity: 1;" transform=" matrix(1 0 0 1 0 0) "/>
	<rect x="45" y="45" rx="0" ry="0" width="45" height="45" style="stroke: none; stroke-width: 1; stroke-dasharray: none; stroke-linecap: butt; stroke-linejoin: miter; stroke-miterlimit: 10; fill: rgb(67,144,179); fill-rule: nonzero; opacity: 1;" transform=" matrix(1 0 0 1 0 0) "/>
	<path d="M 22.5 31.014 c -4.794 0 -8.693 -3.9 -8.693 -8.693 s 3.9 -8.693 8.693 -8.693 s 8.693 3.9 8.693 8.693 S 27.294 31.014 22.5 31.014 z M 22.5 15.673 c -3.665 0 -6.648 2.982 -6.648 6.648 s 2.982 6.648 6.648 6.648 s 6.648 -2.982 6.648 -6.648 S 26.165 15.673 22.5 15.673 z" style="stroke: none; stroke-width: 1; stroke-dasharray: none; stroke-linecap: butt; stroke-linejoin: miter; stroke-miterlimit: 10; fill: rgb(255,255,255); fill-rule: nonzero; opacity: 1;" transform=" matrix(1 0 0 1 0 0) " stroke-linecap="round" />
	<path d="M 22.5 11.159 c -0.565 0 -1.023 -0.458 -1.023 -1.023 V 6.98 c 0 -0.565 0.458 -1.023 1.023 -1.023 s 1.023 0.458 1.023 1.023 v 3.157 C 23.523 10.701 23.065 11.159 22.5 11.159 z" style="stroke: none; stroke-width: 1; stroke-dasharray: none; stroke-linecap: butt; stroke-linejoin: miter; stroke-miterlimit: 10; fill: rgb(255,255,255); fill-rule: nonzero; opacity: 1;" transform=" matrix(1 0 0 1 0 0) " stroke-linecap="round" />
	<path d="M 22.5 38.684 c -0.565 0 -1.023 -0.458 -1.023 -1.023 v -3.157 c 0 -0.565 0.458 -1.023 1.023 -1.023 s 1.023 0.458 1.023 1.023 v 3.157 C 23.523 38.226 23.065 38.684 22.5 38.684 z" style="stroke: none; stroke-width: 1; stroke-dasharray: none; stroke-linecap: butt; stroke-linejoin: miter; stroke-miterlimit: 10; fill: rgb(255,255,255); fill-rule: nonzero; opacity: 1;" transform=" matrix(1 0 0 1 0 0) " stroke-linecap="round" />
	<path d="M 10.316 23.343 H 7.159 c -0.565 0 -1.023 -0.458 -1.023 -1.023 c 0 -0.565 0.458 -1.023 1.023 -1.023 h 3.157 c 0.565 0 1.023 0.458 1.023 1.023 C 11.338 22.886 10.88 23.343 10.316 23.343 z" style="stroke: none; stroke-width: 1; stroke-dasharray: none; stroke-linecap: butt; stroke-linejoin: miter; stroke-miterlimit: 10; fill: rgb(255,255,255); fill-rule: nonzero; opacity: 1;" transform=" matrix(1 0 0 1 0 0) " stroke-linecap="round" />
	<path d="M 37.841 23.343 h -3.157 c -0.565 0 -1.023 -0.458 -1.023 -1.023 c 0 -0.565 0.458 -1.023 1.023 -1.023 h 3.157 c 0.565 0 1.023 0.458 1.023 1.023 C 38.864 22.886 38.406 23.343 37.841 23.343 z" style="stroke: none; stroke-width: 1; stroke-dasharray: none; stroke-linecap: butt; stroke-linejoin: miter; stroke-miterlimit: 10; fill: rgb(255,255,255); fill-rule: nonzero; opacity: 1;" transform=" matrix(1 0 0 1 0 0) " stroke-linecap="round" />
	<path d="M 31.116 14.728 c -0.262 0 -0.523 -0.1 -0.723 -0.3 c -0.4 -0.4 -0.4 -1.047 0 -1.446 l 2.232 -2.232 c 0.4 -0.4 1.047 -0.4 1.446 0 c 0.4 0.4 0.4 1.047 0 1.446 l -2.232 2.232 C 31.639 14.628 31.377 14.728 31.116 14.728 z" style="stroke: none; stroke-width: 1; stroke-dasharray: none; stroke-linecap: butt; stroke-linejoin: miter; stroke-miterlimit: 10; fill: rgb(255,255,255); fill-rule: nonzero; opacity: 1;" transform=" matrix(1 0 0 1 0 0) " stroke-linecap="round" />
	<path d="M 11.652 34.191 c -0.262 0 -0.523 -0.1 -0.723 -0.3 c -0.4 -0.4 -0.4 -1.047 0 -1.446 l 2.232 -2.232 c 0.4 -0.4 1.047 -0.4 1.446 0 c 0.4 0.4 0.4 1.047 0 1.446 l -2.232 2.232 C 12.176 34.091 11.914 34.191 11.652 34.191 z" style="stroke: none; stroke-width: 1; stroke-dasharray: none; stroke-linecap: butt; stroke-linejoin: miter; stroke-miterlimit: 10; fill: rgb(255,255,255); fill-rule: nonzero; opacity: 1;" transform=" matrix(1 0 0 1 0 0) " stroke-linecap="round" />
	<path d="M 13.884 14.728 c -0.262 0 -0.523 -0.1 -0.723 -0.3 l -2.232 -2.232 c -0.4 -0.4 -0.4 -1.047 0 -1.446 c 0.4 -0.4 1.047 -0.4 1.446 0 l 2.232 2.232 c 0.4 0.4 0.4 1.047 0 1.446 C 14.408 14.628 14.146 14.728 13.884 14.728 z" style="stroke: none; stroke-width: 1; stroke-dasharray: none; stroke-linecap: butt; stroke-linejoin: miter; stroke-miterlimit: 10; fill: rgb(255,255,255); fill-rule: nonzero; opacity: 1;" transform=" matrix(1 0 0 1 0 0) " stroke-linecap="round" />
	<path d="M 33.347 34.191 c -0.262 0 -0.523 -0.1 -0.723 -0.3 l -2.232 -2.232 c -0.4 -0.4 -0.4 -1.047 0 -1.446 c 0.4 -0.4 1.047 -0.4 1.446 0 l 2.232 2.232 c 0.4 0.4 0.4 1.047 0 1.446 C 33.871 34.091 33.609 34.191 33.347 34.191 z" style="stroke: none; stroke-width: 1; stroke-dasharray: none; stroke-linecap: butt; stroke-linejoin: miter; stroke-miterlimit: 10; fill: rgb(255,255,255); fill-rule: nonzero; opacity: 1;" transform=" matrix(1 0 0 1 0 0) " stroke-linecap="round" />
	<path d="M 67.5 36.128 c -4.324 0 -7.841 -3.943 -7.841 -8.789 c 0 -4.04 1.904 -7.12 3.745 -10.097 c 1.58 -2.556 3.073 -4.971 3.073 -7.704 c 0 -0.565 0.457 -1.023 1.023 -1.023 s 1.023 0.458 1.023 1.023 c 0 2.734 1.493 5.148 3.073 7.704 c 1.842 2.978 3.745 6.057 3.745 10.097 C 75.341 32.185 71.824 36.128 67.5 36.128 z M 67.5 14.062 c -0.642 1.482 -1.506 2.88 -2.356 4.255 c -1.691 2.735 -3.44 5.563 -3.44 9.022 c 0 3.718 2.6 6.744 5.796 6.744 s 5.796 -3.025 5.796 -6.744 c 0 -3.459 -1.749 -6.287 -3.44 -9.022 C 69.006 16.942 68.142 15.544 67.5 14.062 z" style="stroke: none; stroke-width: 1; stroke-dasharray: none; stroke-linecap: butt; stroke-linejoin: miter; stroke-miterlimit: 10; fill: rgb(255,255,255); fill-rule: nonzero; opacity: 1;" transform=" matrix(1 0 0 1 0 0) " stroke-linecap="round" />
	<path d="M 19.944 62.903 c -0.354 0 -0.697 -0.183 -0.887 -0.511 l -3.835 -6.643 c -0.282 -0.489 -0.115 -1.115 0.375 -1.397 c 0.488 -0.283 1.114 -0.116 1.397 0.375 l 3.835 6.643 c 0.282 0.489 0.115 1.115 -0.375 1.397 C 20.294 62.859 20.117 62.903 19.944 62.903 z" style="stroke: none; stroke-width: 1; stroke-dasharray: none; stroke-linecap: butt; stroke-linejoin: miter; stroke-miterlimit: 10; fill: rgb(255,255,255); fill-rule: nonzero; opacity: 1;" transform=" matrix(1 0 0 1 0 0) " stroke-linecap="round" />
	<path d="M 28.893 78.402 c -0.354 0 -0.697 -0.183 -0.887 -0.511 l -3.835 -6.643 c -0.282 -0.489 -0.115 -1.115 0.375 -1.397 c 0.488 -0.284 1.114 -0.115 1.397 0.375 l 3.835 6.643 c 0.282 0.489 0.115 1.115 -0.375 1.397 C 29.243 78.358 29.066 78.402 28.893 78.402 z" style="stroke: none; stroke-width: 1; stroke-dasharray: none; stroke-linecap: butt; stroke-linejoin: miter; stroke-miterlimit: 10; fill: rgb(255,255,255); fill-rule: nonzero; opacity: 1;" transform=" matrix(1 0 0 1 0 0) " stroke-linecap="round" />
	<path d="M 17.814 59.213 c -0.079 0 -0.158 -0.009 -0.238 -0.028 l -2.661 -0.634 c -0.549 -0.131 -0.888 -0.682 -0.758 -1.231 c 0.131 -0.55 0.686 -0.887 1.232 -0.758 l 2.661 0.634 c 0.549 0.131 0.888 0.682 0.758 1.231 C 18.696 58.898 18.276 59.213 17.814 59.213 z" style="stroke: none; stroke-width: 1; stroke-dasharray: none; stroke-linecap: butt; stroke-linejoin: miter; stroke-miterlimit: 10; fill: rgb(255,255,255); fill-rule: nonzero; opacity: 1;" transform=" matrix(1 0 0 1 0 0) " stroke-linecap="round" />
	<path d="M 17.813 59.213 c -0.097 0 -0.195 -0.014 -0.293 -0.043 c -0.541 -0.161 -0.849 -0.73 -0.688 -1.271 l 0.781 -2.622 c 0.161 -0.542 0.731 -0.849 1.272 -0.688 c 0.541 0.161 0.849 0.73 0.688 1.271 l -0.781 2.622 C 18.661 58.927 18.254 59.213 17.813 59.213 z" style="stroke: none; stroke-width: 1; stroke-dasharray: none; stroke-linecap: butt; stroke-linejoin: miter; stroke-miterlimit: 10; fill: rgb(255,255,255); fill-rule: nonzero; opacity: 1;" transform=" matrix(1 0 0 1 0 0) " stroke-linecap="round" />
	<path d="M 26.407 78.072 c -0.097 0 -0.195 -0.014 -0.293 -0.043 c -0.541 -0.161 -0.849 -0.73 -0.688 -1.271 l 0.781 -2.622 c 0.161 -0.542 0.732 -0.848 1.272 -0.688 c 0.541 0.161 0.849 0.73 0.688 1.271 l -0.781 2.622 C 27.254 77.785 26.847 78.072 26.407 78.072 z" style="stroke: none; stroke-width: 1; stroke-dasharray: none; stroke-linecap: butt; stroke-linejoin: miter; stroke-miterlimit: 10; fill: rgb(255,255,255); fill-rule: nonzero; opacity: 1;" transform=" matrix(1 0 0 1 0 0) " stroke-linecap="round" />
	<path d="M 29.849 76.084 c -0.079 0 -0.158 -0.009 -0.238 -0.028 l -2.661 -0.634 c -0.549 -0.131 -0.888 -0.682 -0.758 -1.231 c 0.131 -0.55 0.687 -0.888 1.232 -0.758 l 2.661 0.634 c 0.549 0.131 0.888 0.682 0.758 1.231 C 30.731 75.769 30.311 76.084 29.849 76.084 z" style="stroke: none; stroke-width: 1; stroke-dasharray: none; stroke-linecap: butt; stroke-linejoin: miter; stroke-miterlimit: 10; fill: rgb(255,255,255); fill-rule: nonzero; opacity: 1;" transform=" matrix(1 0 0 1 0 0) " stroke-linecap="round" />
	<path d="M 25.056 62.903 c -0.173 0 -0.349 -0.044 -0.51 -0.137 c -0.489 -0.283 -0.657 -0.908 -0.375 -1.397 l 3.835 -6.643 c 0.283 -0.488 0.906 -0.657 1.397 -0.375 c 0.489 0.283 0.657 0.908 0.375 1.397 l -3.835 6.643 C 25.753 62.72 25.409 62.903 25.056 62.903 z" style="stroke: none; stroke-width: 1; stroke-dasharray: none; stroke-linecap: butt; stroke-linejoin: miter; stroke-miterlimit: 10; fill: rgb(255,255,255); fill-rule: nonzero; opacity: 1;" transform=" matrix(1 0 0 1 0 0) " stroke-linecap="round" />
	<path d="M 16.107 78.402 c -0.173 0 -0.349 -0.044 -0.51 -0.137 c -0.489 -0.283 -0.657 -0.908 -0.375 -1.397 l 3.835 -6.643 c 0.283 -0.489 0.906 -0.658 1.397 -0.375 c 0.489 0.283 0.657 0.908 0.375 1.397 l -3.835 6.643 C 16.804 78.219 16.461 78.402 16.107 78.402 z" style="stroke: none; stroke-width: 1; stroke-dasharray: none; stroke-linecap: butt; stroke-linejoin: miter; stroke-miterlimit: 10; fill: rgb(255,255,255); fill-rule: nonzero; opacity: 1;" transform=" matrix(1 0 0 1 0 0) " stroke-linecap="round" />
	<path d="M 27.186 59.213 c -0.462 0 -0.882 -0.316 -0.994 -0.786 c -0.131 -0.549 0.208 -1.101 0.758 -1.231 l 2.661 -0.634 c 0.551 -0.129 1.101 0.208 1.232 0.758 c 0.131 0.549 -0.208 1.101 -0.758 1.231 l -2.661 0.634 C 27.344 59.204 27.265 59.213 27.186 59.213 z" style="stroke: none; stroke-width: 1; stroke-dasharray: none; stroke-linecap: butt; stroke-linejoin: miter; stroke-miterlimit: 10; fill: rgb(255,255,255); fill-rule: nonzero; opacity: 1;" transform=" matrix(1 0 0 1 0 0) " stroke-linecap="round" />
	<path d="M 27.187 59.213 c -0.44 0 -0.847 -0.287 -0.98 -0.731 l -0.781 -2.622 c -0.161 -0.541 0.147 -1.111 0.688 -1.271 c 0.539 -0.161 1.111 0.146 1.272 0.688 l 0.781 2.622 c 0.161 0.541 -0.147 1.111 -0.688 1.271 C 27.382 59.199 27.284 59.213 27.187 59.213 z" style="stroke: none; stroke-width: 1; stroke-dasharray: none; stroke-linecap: butt; stroke-linejoin: miter; stroke-miterlimit: 10; fill: rgb(255,255,255); fill-rule: nonzero; opacity: 1;" transform=" matrix(1 0 0 1 0 0) " stroke-linecap="round" />
	<path d="M 18.593 78.072 c -0.44 0 -0.847 -0.287 -0.98 -0.731 l -0.781 -2.622 c -0.161 -0.541 0.147 -1.111 0.688 -1.271 c 0.541 -0.16 1.111 0.146 1.272 0.688 l 0.781 2.622 c 0.161 0.541 -0.147 1.111 -0.688 1.271 C 18.789 78.058 18.69 78.072 18.593 78.072 z" style="stroke: none; stroke-width: 1; stroke-dasharray: none; stroke-linecap: butt; stroke-linejoin: miter; stroke-miterlimit: 10; fill: rgb(255,255,255); fill-rule: nonzero; opacity: 1;" transform=" matrix(1 0 0 1 0 0) " stroke-linecap="round" />
	<path d="M 15.151 76.084 c -0.462 0 -0.882 -0.316 -0.994 -0.786 c -0.131 -0.549 0.208 -1.101 0.758 -1.231 l 2.661 -0.634 c 0.55 -0.13 1.101 0.208 1.232 0.758 c 0.131 0.549 -0.208 1.101 -0.758 1.231 l -2.661 0.634 C 15.309 76.075 15.23 76.084 15.151 76.084 z" style="stroke: none; stroke-width: 1; stroke-dasharray: none; stroke-linecap: butt; stroke-linejoin: miter; stroke-miterlimit: 10; fill: rgb(255,255,255); fill-rule: nonzero; opacity: 1;" transform=" matrix(1 0 0 1 0 0) " stroke-linecap="round" />
	<path d="M 17.386 67.331 h -7.67 c -0.565 0 -1.023 -0.457 -1.023 -1.023 c 0 -0.565 0.458 -1.023 1.023 -1.023 h 7.67 c 0.565 0 1.023 0.457 1.023 1.023 C 18.409 66.874 17.951 67.331 17.386 67.331 z" style="stroke: none; stroke-width: 1; stroke-dasharray: none; stroke-linecap: butt; stroke-linejoin: miter; stroke-miterlimit: 10; fill: rgb(255,255,255); fill-rule: nonzero; opacity: 1;" transform=" matrix(1 0 0 1 0 0) " stroke-linecap="round" />
	<path d="M 35.284 67.331 h -7.67 c -0.565 0 -1.023 -0.457 -1.023 -1.023 c 0 -0.565 0.458 -1.023 1.023 -1.023 h 7.67 c 0.565 0 1.023 0.457 1.023 1.023 C 36.307 66.874 35.849 67.331 35.284 67.331 z" style="stroke: none; stroke-width: 1; stroke-dasharray: none; stroke-linecap: butt; stroke-linejoin: miter; stroke-miterlimit: 10; fill: rgb(255,255,255); fill-rule: nonzero; opacity: 1;" transform=" matrix(1 0 0 1 0 0) " stroke-linecap="round" />
	<path d="M 11.246 69.319 c -0.252 0 -0.505 -0.093 -0.703 -0.28 c -0.41 -0.388 -0.428 -1.036 -0.04 -1.446 l 1.879 -1.988 c 0.388 -0.41 1.036 -0.427 1.446 -0.04 c 0.41 0.388 0.428 1.036 0.04 1.446 l -1.879 1.988 C 11.788 69.212 11.517 69.319 11.246 69.319 z" style="stroke: none; stroke-width: 1; stroke-dasharray: none; stroke-linecap: butt; stroke-linejoin: miter; stroke-miterlimit: 10; fill: rgb(255,255,255); fill-rule: nonzero; opacity: 1;" transform=" matrix(1 0 0 1 0 0) " stroke-linecap="round" />
	<path d="M 13.125 67.331 c -0.271 0 -0.542 -0.107 -0.743 -0.32 l -1.879 -1.987 c -0.388 -0.41 -0.37 -1.058 0.04 -1.446 c 0.41 -0.388 1.057 -0.371 1.446 0.04 l 1.879 1.987 c 0.388 0.41 0.37 1.058 -0.04 1.446 C 13.631 67.238 13.377 67.331 13.125 67.331 z" style="stroke: none; stroke-width: 1; stroke-dasharray: none; stroke-linecap: butt; stroke-linejoin: miter; stroke-miterlimit: 10; fill: rgb(255,255,255); fill-rule: nonzero; opacity: 1;" transform=" matrix(1 0 0 1 0 0) " stroke-linecap="round" />
	<path d="M 33.754 69.319 c -0.271 0 -0.542 -0.107 -0.743 -0.32 l -1.879 -1.988 c -0.388 -0.41 -0.37 -1.059 0.04 -1.446 c 0.41 -0.388 1.058 -0.371 1.446 0.04 l 1.879 1.988 c 0.388 0.41 0.37 1.059 -0.04 1.446 C 34.259 69.226 34.006 69.319 33.754 69.319 z" style="stroke: none; stroke-width: 1; stroke-dasharray: none; stroke-linecap: butt; stroke-linejoin: miter; stroke-miterlimit: 10; fill: rgb(255,255,255); fill-rule: nonzero; opacity: 1;" transform=" matrix(1 0 0 1 0 0) " stroke-linecap="round" />
	<path d="M 31.875 67.331 c -0.252 0 -0.505 -0.093 -0.703 -0.28 c -0.41 -0.389 -0.428 -1.036 -0.04 -1.446 l 1.879 -1.987 c 0.389 -0.41 1.035 -0.427 1.446 -0.04 c 0.41 0.389 0.428 1.036 0.04 1.446 l -1.879 1.987 C 32.417 67.224 32.146 67.331 31.875 67.331 z" style="stroke: none; stroke-width: 1; stroke-dasharray: none; stroke-linecap: butt; stroke-linejoin: miter; stroke-miterlimit: 10; fill: rgb(255,255,255); fill-rule: nonzero; opacity: 1;" transform=" matrix(1 0 0 1 0 0) " stroke-linecap="round" />
	<path d="M 25.057 71.76 h -5.114 c -0.366 0 -0.703 -0.195 -0.886 -0.511 L 16.5 66.82 c -0.182 -0.317 -0.182 -0.706 0 -1.023 l 2.557 -4.428 c 0.183 -0.317 0.52 -0.511 0.886 -0.511 h 5.114 c 0.366 0 0.703 0.195 0.886 0.511 l 2.557 4.428 c 0.182 0.317 0.182 0.706 0 1.023 l -2.557 4.428 C 25.76 71.565 25.422 71.76 25.057 71.76 z M 20.533 69.714 h 3.933 l 1.966 -3.406 l -1.966 -3.406 h -3.933 l -1.966 3.406 L 20.533 69.714 z" style="stroke: none; stroke-width: 1; stroke-dasharray: none; stroke-linecap: butt; stroke-linejoin: miter; stroke-miterlimit: 10; fill: rgb(255,255,255); fill-rule: nonzero; opacity: 1;" transform=" matrix(1 0 0 1 0 0) " stroke-linecap="round" />
	<path d="M 71.277 81.044 c -0.565 0 -1.023 -0.457 -1.023 -1.023 c 0 -0.565 0.457 -1.023 1.023 -1.023 c 1.771 0 3.211 -1.441 3.211 -3.212 s -1.44 -3.212 -3.211 -3.212 h -12.47 c -0.565 0 -1.023 -0.457 -1.023 -1.023 c 0 -0.565 0.457 -1.023 1.023 -1.023 h 12.47 c 2.898 0 5.256 2.358 5.256 5.257 S 74.176 81.044 71.277 81.044 z" style="stroke: none; stroke-width: 1; stroke-dasharray: none; stroke-linecap: butt; stroke-linejoin: miter; stroke-miterlimit: 10; fill: rgb(255,255,255); fill-rule: nonzero; opacity: 1;" transform=" matrix(1 0 0 1 0 0) " stroke-linecap="round" />
	<path d="M 76.049 68.379 H 54.716 c -0.565 0 -1.023 -0.457 -1.023 -1.023 c 0 -0.565 0.457 -1.023 1.023 -1.023 h 21.333 c 1.771 0 3.212 -1.441 3.212 -3.212 c 0 -1.771 -1.441 -3.212 -3.212 -3.212 c -0.565 0 -1.023 -0.457 -1.023 -1.023 s 0.457 -1.023 1.023 -1.023 c 2.899 0 5.257 2.358 5.257 5.257 C 81.307 66.021 78.949 68.379 76.049 68.379 z" style="stroke: none; stroke-width: 1; stroke-dasharray: none; stroke-linecap: butt; stroke-linejoin: miter; stroke-miterlimit: 10; fill: rgb(255,255,255); fill-rule: nonzero; opacity: 1;" transform=" matrix(1 0 0 1 0 0) " stroke-linecap="round" />
	<path d="M 72.017 64.269 h -11.2 c -0.565 0 -1.023 -0.457 -1.023 -1.023 s 0.457 -1.023 1.023 -1.023 h 11.2 c 0.565 0 1.023 0.457 1.023 1.023 S 72.583 64.269 72.017 64.269 z" style="stroke: none; stroke-width: 1; stroke-dasharray: none; stroke-linecap: butt; stroke-linejoin: miter; stroke-miterlimit: 10; fill: rgb(255,255,255); fill-rule: nonzero; opacity: 1;" transform=" matrix(1 0 0 1 0 0) " stroke-linecap="round" />
</g>
</svg>